<mxfile host="app.diagrams.net" modified="2020-11-03T06:22:45.779Z" agent="5.0 (Windows NT 10.0; Win64; x64) AppleWebKit/537.36 (KHTML, like Gecko) Chrome/86.0.4240.111 Safari/537.36" etag="PydJkeoVa0Mxz4KIhdyf" version="13.8.8" type="github">
  <diagram id="RRVnuHkG2z7GO7fGx8TT" name="Page-1">
    <mxGraphModel dx="1347" dy="834" grid="1" gridSize="10" guides="1" tooltips="1" connect="1" arrows="1" fold="1" page="1" pageScale="1" pageWidth="850" pageHeight="1100" math="0" shadow="0">
      <root>
        <mxCell id="0" />
        <mxCell id="1" parent="0" />
        <mxCell id="YXjOl13-em4cpMqpfAcY-1" value="" style="ellipse;whiteSpace=wrap;html=1;rounded=1;shadow=0;comic=0;strokeWidth=1;fontFamily=Segoe UI;fontSize=12;" vertex="1" parent="1">
          <mxGeometry x="370" y="200" width="120" height="80" as="geometry" />
        </mxCell>
        <mxCell id="YXjOl13-em4cpMqpfAcY-2" value="" style="shape=document;whiteSpace=wrap;html=1;boundedLbl=1;rounded=1;shadow=0;comic=0;strokeWidth=1;fontFamily=Segoe UI;fontSize=12;" vertex="1" parent="1">
          <mxGeometry x="180" y="200" width="120" height="80" as="geometry" />
        </mxCell>
      </root>
    </mxGraphModel>
  </diagram>
</mxfile>
